<svg xmlns="http://www.w3.org/2000/svg" width="25.13" height="22.954" viewBox="0 0 25.13 22.954">
  <g id="Group_85" data-name="Group 85" transform="translate(0 -25)">
    <path id="Path_18" data-name="Path 18" d="M99.795,249h-1.9a.892.892,0,1,0,0,1.784h1.9a.892.892,0,1,0,0-1.784Z" transform="translate(-92.378 -213.023)" fill="#888"/>
    <path id="Path_19" data-name="Path 19" d="M99.795,313h-1.9a.892.892,0,1,0,0,1.784h1.9a.892.892,0,1,0,0-1.784Z" transform="translate(-92.378 -273.887)" fill="#888"/>
    <path id="Path_20" data-name="Path 20" d="M99.795,377h-1.9a.892.892,0,1,0,0,1.784h1.9a.892.892,0,1,0,0-1.784Z" transform="translate(-92.378 -334.75)" fill="#888"/>
    <path id="Path_21" data-name="Path 21" d="M227.795,249h-1.9a.892.892,0,0,0,0,1.784h1.9a.892.892,0,1,0,0-1.784Z" transform="translate(-214.278 -213.023)" fill="#888"/>
    <path id="Path_22" data-name="Path 22" d="M227.795,313h-1.9a.892.892,0,1,0,0,1.784h1.9a.892.892,0,1,0,0-1.784Z" transform="translate(-214.278 -273.887)" fill="#888"/>
    <path id="Path_23" data-name="Path 23" d="M227.795,377h-1.9a.892.892,0,1,0,0,1.784h1.9a.892.892,0,1,0,0-1.784Z" transform="translate(-214.278 -334.75)" fill="#888"/>
    <path id="Path_24" data-name="Path 24" d="M355.795,249h-1.9a.892.892,0,0,0,0,1.784h1.9a.892.892,0,1,0,0-1.784Z" transform="translate(-336.179 -213.023)" fill="#888"/>
    <path id="Path_25" data-name="Path 25" d="M355.795,313h-1.9a.892.892,0,0,0,0,1.784h1.9a.892.892,0,1,0,0-1.784Z" transform="translate(-336.179 -273.887)" fill="#888"/>
    <path id="Path_26" data-name="Path 26" d="M355.795,377h-1.9a.892.892,0,0,0,0,1.784h1.9a.892.892,0,1,0,0-1.784Z" transform="translate(-336.179 -334.75)" fill="#888"/>
    <path id="Path_27" data-name="Path 27" d="M22.922,26.987H21.155V25.745a.736.736,0,1,0-1.472,0v1.242H13.3V25.745a.736.736,0,1,0-1.472,0v1.242H5.448V25.745a.736.736,0,1,0-1.472,0v1.242H2.209A2.225,2.225,0,0,0,0,29.223v16.5a2.225,2.225,0,0,0,2.209,2.236H22.922a2.225,2.225,0,0,0,2.209-2.236v-16.5A2.225,2.225,0,0,0,22.922,26.987ZM1.472,29.223a.742.742,0,0,1,.736-.745H3.976V29.72a.736.736,0,1,0,1.472,0V28.478h6.381V29.72a.736.736,0,1,0,1.472,0V28.478h6.381V29.72a.736.736,0,1,0,1.472,0V28.478h1.767a.742.742,0,0,1,.736.745v2.931H1.472Zm21.449,17.24H2.209a.742.742,0,0,1-.736-.745V33.645H23.658V45.718A.742.742,0,0,1,22.922,46.463Z" transform="translate(0 0)" fill="#888"/>
  </g>
</svg>
